# xmcd CD database file
#
# Track frame offsets:
#	150
#	11843
#	25301
#	35727
#	46824
#	57288
#	69220
#	81562
#	94578
#	103518
#	112959
#	123657
#	131784
#	143269
#	153691
#	165747
#	179148
#	191991
#	204246
#	213553
#	223869
#	234437
#	247113
#	257908
#	269003
#	279242
#	290068
#	302777
#
# Disc length: 4206 seconds
#
# Revision: 4
# Processed by: cddbd v1.5.2PL0 Copyright (c) Steve Scherf et al.
# Submitted via: CDex 1.94
#
DISCID=b5106c1c
DTITLE=Various Artist - Mod (The Early Years) # 1.1
DYEAR=2014
DGENRE=Rhythm and Blues
TTITLE0=Bobby "Blue" Bland - Turn on Your Love Light
TTITLE1=Ben E. King - Stand By Me
TTITLE2=Carl Lester and The Showstoppers - When You See Me Hurt
TTITLE3=Gene and Al's Spacemen - Mercy
TTITLE4=Chuck Jackson - I Don't Want to Cry
TTITLE5=Barrett Strong - Money (That's What I Want)
TTITLE6=James Brown and The  Blue Flames - Please, Please, Please
TTITLE7=Mary Wells - Bye Bye Baby
TTITLE8=Bobby Peterson Quintet - Mama Get Your Hammer
TTITLE9=Roscoe Gordon - Just a Little Bit
TTITLE10=Dave "Baby" Cortez - Hurricane
TTITLE11=Charles Sheffield - It's Your Voodoo Working
TTITLE12=Huey "Piano" Smith - Don't You Just Know It
TTITLE13=Marv Johnson - Come to Me
TTITLE14=The Shirelles - Baby It's You
TTITLE15=The Del Vikings - Bring Back Your Heart
TTITLE16=Johnny and Jackey - Someday We'll Be Together
TTITLE17=The Folks Brothers - Oh Carolina
TTITLE18=The Top Notes - Twist and Shout
TTITLE19=Don Covay and The Goodtimers - Pony Time
TTITLE20=Mitty Collier - I've Got Love
TTITLE21=Smokey Robinson and The Miracles - Shop Around
TTITLE22=James Booker - Gonzo
TTITLE23=Piney Brown and His Blues Toppers - Sugar in My Tea
TTITLE24=Bill Black's Combo - My Girl Josephine
TTITLE25=Don McKenzie - Whose Heart (Are You Gonna Break Now)
TTITLE26=Bo Diddley - Pretty Thing
TTITLE27=Jimmy Reed - Big Boss Man
EXTD=YEAR: 2014
EXTT0=
EXTT1=
EXTT2=
EXTT3=
EXTT4=
EXTT5=
EXTT6=
EXTT7=
EXTT8=
EXTT9=
EXTT10=
EXTT11=
EXTT12=
EXTT13=
EXTT14=
EXTT15=
EXTT16=
EXTT17=
EXTT18=
EXTT19=
EXTT20=
EXTT21=
EXTT22=
EXTT23=
EXTT24=
EXTT25=
EXTT26=
EXTT27=
PLAYORDER=
